inDegrees=yes
name=ik_S44_A06_T02
DataType=double
version=3
OpenSimVersion=4.3-2021-08-27-4bc7ad9
endheader
time	pelvis_tilt	pelvis_list	pelvis_rotation	pelvis_tx	pelvis_ty	pelvis_tz	hip_flexion_r	hip_adduction_r	hip_rotation_r	knee_angle_r	knee_angle_r_beta	ankle_angle_r	subtalar_angle_r	mtp_angle_r	hip_flexion_l	hip_adduction_l	hip_rotation_l	knee_angle_l	knee_angle_l_beta	ankle_angle_l	subtalar_angle_l	mtp_angle_l	lumbar_extension	lumbar_bending	lumbar_rotation	arm_flex_r	arm_add_r	arm_rot_r	elbow_flex_r	pro_sup_r	wrist_flex_r	wrist_dev_r	arm_flex_l	arm_add_l	arm_rot_l	elbow_flex_l	pro_sup_l	wrist_flex_l	wrist_dev_l
28.25999999999949	-6.491291279121937	-0.4095023271342368	39.83726894270426	0	0.9399999999999999	0	43.46501036707254	-10.0228748610639	-10.03568734996396	55.80502827186738	0.9739814825126071	0	0	0	43.46501036707254	-10.0228748610639	-10.03568734996396	55.80502827186738	0.9739814825126071	0	0	0	-3.708670368359885	2.906440245829491	-9.598402423689903	35.16323673161394	3.049228947677018	15.6613906883616	31.83942024306151	130.3972557614967	0	0	72.41258156747234	-10.78927667997427	3.11612319694678	18.13430790276413	100.3687364016427	0	0
28.27999999999949	-6.480479154090977	-0.507729474846898	39.90547473013788	0	0.9399999999999999	0	43.46563585982962	-10.02284229987483	-10.03565476969345	55.80480886180133	0.9739776530845425	0	0	0	43.46563585982962	-10.02284229987483	-10.03565476969345	55.80480886180133	0.9739776530845425	0	0	0	-3.763696688622344	2.825223948647539	-9.612690514988264	35.22902872661738	3.051835406845568	15.52159234045408	31.92027160008611	130.4178502005028	0	0	72.48730641228504	-10.92433090586552	2.828064426185266	17.8911457828371	100.7700254488725	0	0
28.29999999999949	-6.457645390925236	-0.5837916166109854	39.94053486461695	0	0.9399999999999999	0	43.46639975921335	-10.02280257491853	-10.03561500006889	55.80454088581938	0.9739729760213411	0	0	0	43.46639975921335	-10.02280257491853	-10.03561500006889	55.80454088581938	0.9739729760213411	0	0	0	-3.795726075164793	2.756166666196479	-9.661734718882197	35.21089560337565	3.085360907411212	15.40383601873521	32.01409300784857	130.4381628584461	0	0	72.54289530903628	-11.14015257199438	2.456572024343576	17.4807733203912	101.0496124703359	0	0
28.31999999999949	-6.450244231537471	-0.6153329363023113	39.96510448776167	0	0.9399999999999999	0	43.46705125258536	-10.02276880133728	-10.03558114717521	55.80431184804296	0.9739689785580311	0	0	0	43.46705125258536	-10.02276880133728	-10.03558114717521	55.80431184804296	0.9739689785580311	0	0	0	-3.810708649018629	2.729206190756098	-9.683808239160339	35.14483119809276	3.013786388773917	15.26484637641876	32.13439393562853	130.5381329362959	0	0	72.53723956410829	-11.25552085822405	2.1421980561277	17.23131820219961	101.0342966431739	0	0
28.33999999999948	-6.431736826681738	-0.7141632735852226	40.01356756428537	0	0.9399999999999999	0	43.46784850550716	-10.02272745700158	-10.0355397018534	55.80403195525526	0.9739640935073333	0	0	0	43.46784850550716	-10.02272745700158	-10.0355397018534	55.80403195525526	0.9739640935073333	0	0	0	-3.860335413413588	2.641943227540246	-9.685268768065368	35.11979956216452	3.030384271039103	15.02990047257501	32.2766104441388	130.6205521580193	0	0	72.57365131972759	-11.36970979858829	2.116972689192644	17.098567285894	100.5278327521792	0	0
28.35999999999948	-6.406554959417511	-0.7899855830664816	40.03844711379757	0	0.9399999999999999	0	43.46804107495964	-10.02271757258952	-10.03552975711231	55.80396375248856	0.9739629031444953	0	0	0	43.46804107495964	-10.02271757258952	-10.03552975711231	55.80396375248856	0.9739629031444953	0	0	0	-3.889772039609423	2.567405017446672	-9.683880010337095	35.11736758119073	3.019255673631093	14.93659601830961	32.3131617823965	130.6717516372262	0	0	72.57025975502933	-11.40475786450506	2.052305392655707	17.0549676836498	100.4142960248157	0	0
28.37999999999948	-6.395059849583978	-0.8742803952844774	40.06738846345631	0	0.9399999999999999	0	43.46842073946976	-10.02269795698441	-10.03551006338508	55.80383017679603	0.97396057180886	0	0	0	43.46842073946976	-10.02269795698441	-10.03551006338508	55.80383017679603	0.97396057180886	0	0	0	-3.935120890282269	2.494140770907274	-9.668064715601627	35.13495749682249	3.020389055566172	14.83571451319122	32.37595711967276	130.8047875364644	0	0	72.6634064404799	-11.35585780865914	2.016917109804971	16.96694058428356	100.3981388905114	0	0
28.39999999999948	-6.342753693890333	-1.005582571115138	40.0886324779669	0	0.9399999999999999	0	43.46868376299393	-10.02268448120037	-10.0354964921225	55.80373702126832	0.9739589459381851	0	0	0	43.46868376299393	-10.02268448120037	-10.0354964921225	55.80373702126832	0.9739589459381851	0	0	0	-3.979355505242543	2.358488532666106	-9.654822594766152	35.10947350577045	3.126631366611255	14.71833929962214	32.40983080553559	130.7850731407502	0	0	72.77210891546666	-11.35211752158455	2.223372671967709	16.94119449976948	100.4918655900299	0	0
28.41999999999948	-6.331780681481363	-1.04300602950647	40.12424760842138	0	0.9399999999999999	0	43.46911101954833	-10.02266268539016	-10.0354745113376	55.80358503113582	0.9739562932099425	0	0	0	43.46911101954833	-10.02266268539016	-10.0354745113376	55.80358503113582	0.9739562932099425	0	0	0	-3.995614312478271	2.324994968778118	-9.680342601755775	35.13556434932159	3.185024787313369	14.66248479652462	32.39110318769654	130.8241980723047	0	0	72.82796760354057	-11.41439123656402	2.281363208230977	16.64961223953894	100.0681006008114	0	0
28.43999999999948	-6.31292267158148	-1.116651145544367	40.12411808056127	0	0.9399999999999999	0	43.46962022357707	-10.02263641766191	-10.03544811932488	55.80340581478519	0.9739531652945504	0	0	0	43.46962022357707	-10.02263641766191	-10.03544811932488	55.80340581478519	0.9739531652945504	0	0	0	-4.028834116227393	2.256459177270861	-9.67891006254883	35.11333651705952	3.061926865886809	14.77518653348671	32.48744054224047	130.6408792434986	0	0	72.88255305239178	-11.42623021387681	2.467617270087421	16.57060979295258	99.97243153263098	0	0
28.45999999999948	-6.282451969698606	-1.180541226184997	40.12667438748278	0	0.9399999999999999	0	43.47007586652015	-10.02261299820672	-10.03542455733546	55.80324499285592	0.9739503584223753	0	0	0	43.47007586652015	-10.02261299820672	-10.03542455733546	55.80324499285592	0.9739503584223753	0	0	0	-4.047220488386556	2.189828565219289	-9.700184701516863	35.1151744986411	3.073947370692765	14.85998948419117	32.33377502026994	130.773303328462	0	0	72.87359415303412	-11.46657705700521	2.598762711719773	16.28176042257933	100.2011477447018	0	0
28.47999999999948	-6.26335301731913	-1.246790565604008	40.13075508658801	0	0.9399999999999999	0	43.47048499485922	-10.02259196777442	-10.03540339633911	55.80310070737296	0.9739478401656348	0	0	0	43.47048499485922	-10.02259196777442	-10.03540339633911	55.80310070737296	0.9739478401656348	0	0	0	-4.076163773642996	2.13032189478443	-9.740713602379273	35.13406331889794	3.103925665529151	15.02481467640907	32.30894199407921	130.6794516161725	0	0	72.93798077747637	-11.56517400832682	2.708518077427863	16.07317390948532	100.3503475273643	0	0
28.49999999999948	-6.262580335269501	-1.291767654504116	40.12647706934663	0	0.9399999999999999	0	43.47085525141895	-10.02257297972754	-10.0353842704421	55.80297001272432	0.9739455591137014	0	0	0	43.47085525141895	-10.02257297972754	-10.0353842704421	55.80297001272432	0.9739455591137014	0	0	0	-4.105218592394842	2.097924986326911	-9.767757822478055	35.14551895887473	3.086985704984481	15.14965046948852	32.29888645310587	130.5886602220056	0	0	72.82694673709939	-11.61080547695601	2.687978198653999	16.17446119931256	99.95192190300462	0	0
28.51999999999948	-6.255485565511584	-1.361574644654346	40.11181417180617	0	0.9399999999999999	0	43.47121673940229	-10.02255444227168	-10.03536559630809	55.80284246775039	0.973943333033962	0	0	0	43.47121673940229	-10.02255444227168	-10.03536559630809	55.80284246775039	0.973943333033962	0	0	0	-4.14516815069608	2.041175864198808	-9.781946413746327	35.16782714548184	3.118830073405839	15.12302014998436	32.30437044196896	130.5905402195436	0	0	72.80167166510128	-11.7000042140075	2.706616909679809	16.33744284256576	99.72754573526956	0	0
28.53999999999948	-6.241674729880174	-1.42849638736877	40.09366517119542	0	0.9399999999999999	0	43.47147340566558	-10.02254130717256	-10.03535235552383	55.80275171894802	0.9739417491685683	0	0	0	43.47147340566558	-10.02254130717256	-10.03535235552383	55.80275171894802	0.9739417491685683	0	0	0	-4.178043947809782	1.982280919938137	-9.796816249148334	35.18566805201655	3.168167188486878	15.06806655444371	32.33687839058143	130.6198303144244	0	0	72.81318066489288	-11.77713621547389	2.717784669382427	16.42494760873322	99.71522724156547	0	0
28.55999999999948	-6.231461931081899	-1.502370145922521	40.07047647476303	0	0.9399999999999999	0	43.47184336471522	-10.02252239592571	-10.03533328397075	55.80262079720691	0.9739394641531236	0	0	0	43.47184336471522	-10.02252239592571	-10.03533328397075	55.80262079720691	0.9739394641531236	0	0	0	-4.21817342199078	1.920144161770456	-9.80728576856958	35.19349511428938	3.220786429008647	15.05449807392201	32.37104962207145	130.6833259878098	0	0	72.78277222245585	-11.86782819627937	2.876614919450378	16.62728415600702	99.75642608739899	0	0
